<?xml version="1.0" encoding="UTF-8"?>
<svg xmlns="http://www.w3.org/2000/svg" viewBox="0 0 900 620" fill="none" style="color:var(--skd-primary,#1A2B6B);--tagline-color:var(--skd-tagline,#7D90B6)" aria-labelledby="skd-logo-title skd-logo-desc">
  <title id="skd-logo-title">SK Dental</title>
  <desc id="skd-logo-desc">SK Dental logo with tooth monogram and tagline</desc>

  <path
    d="M450 68
       C362 68 300 128 300 228
       C300 281 322 332 336 393
       C343 425 365 448 389 448
       C414 448 430 428 438 394
       L450 346
       L462 394
       C470 428 486 448 511 448
       C535 448 557 425 564 393
       C578 332 600 281 600 228
       C600 128 538 68 450 68 Z"
    stroke="currentColor"
    stroke-width="14"
    fill="none"
    stroke-linecap="round"
    stroke-linejoin="round"
  />

  <g stroke="currentColor" stroke-width="18" fill="none" stroke-linecap="round" stroke-linejoin="round" aria-hidden="true">
    <path d="M390 205 C413 176 468 178 470 212 C472 246 410 242 408 276 C406 307 455 315 486 286" />
    <path d="M510 182 L510 304" />
    <path d="M510 250 C527 232 544 210 565 183" />
    <path d="M516 249 C538 267 553 286 575 305" />
  </g>

  <text
    x="450"
    y="520"
    text-anchor="middle"
    font-family="Inter, 'Helvetica Neue', Arial, sans-serif"
    font-size="78"
    font-weight="800"
    letter-spacing="2"
    fill="currentColor"
  >SK DENTAL</text>

  <line x1="110" y1="564" x2="286" y2="564" stroke="var(--tagline-color)" stroke-width="3" />
  <text
    x="450"
    y="570"
    text-anchor="middle"
    font-family="Inter, 'Helvetica Neue', Arial, sans-serif"
    font-size="30"
    font-weight="500"
    fill="var(--tagline-color)"
  >Your Smile, Our Priority</text>
  <line x1="614" y1="564" x2="790" y2="564" stroke="var(--tagline-color)" stroke-width="3" />
</svg>
