<svg width="160" height="160" viewBox="0 0 160 160" fill="none" xmlns="http://www.w3.org/2000/svg">
  <rect width="160" height="160" rx="32" fill="#EFF6FF"/>
  <path d="M80 20C64.4055 20 51.7561 32.6494 51.7561 48.2439C51.7561 55.4632 54.4659 62.0535 59.0244 67.0488C61.8395 70.1327 63.4146 74.1482 63.4146 78.3244V101.057C63.4146 112.935 70.0303 123.829 80.561 129.293C91.0917 123.829 97.7073 112.935 97.7073 101.057V78.3244C97.7073 74.1482 99.2825 70.1327 102.098 67.0488C106.656 62.0535 109.366 55.4632 109.366 48.2439C109.366 32.6494 96.7165 20 81.122 20H80Z" fill="#0F52BA"/>
  <path d="M69.7561 75.122H90.2439V102.024C90.2439 108.918 86.4546 115.248 80 118.585C73.5454 115.248 69.7561 108.918 69.7561 102.024V75.122Z" fill="#3B82F6"/>
  <path d="M65.6585 38.4878C69.9512 32.0488 75.4146 27.9512 80 26.1951C84.5854 27.9512 90.0488 32.0488 94.3415 38.4878C92.7805 33.4146 88.6829 27.1707 80 22.6829C71.3171 27.1707 67.2195 33.4146 65.6585 38.4878Z" fill="#93C5FD"/>
  <path d="M74.7317 76.0976V97.4634C74.7317 101.366 76.878 104.951 80 106.976C83.122 104.951 85.2683 101.366 85.2683 97.4634V76.0976H74.7317Z" fill="#EFF6FF"/>
  <text x="80" y="144" text-anchor="middle" fill="#0B3F91" font-family="Arial, sans-serif" font-size="22" font-weight="700">SK Dental</text>
</svg>
